<svg xmlns="http://www.w3.org/2000/svg" xmlns:xlink="http://www.w3.org/1999/xlink" viewBox="0 0 1366 768"><defs><style>.cls-1,.cls-3,.cls-4,.cls-5,.cls-9{fill:#fff;}.cls-2,.cls-3,.cls-4,.cls-5{isolation:isolate;}.cls-3,.cls-4{font-size:55.17px;}.cls-3{font-family:Fugue-Regular, Fugue;}.cls-4{font-family:FugueHead, Fugue;}.cls-5{font-size:17.65px;font-family:SourceSansPro-Regular, Source Sans Pro;}.cls-6{clip-path:url(#clip-path);}.cls-7{clip-path:url(#clip-path-2);}.cls-8{clip-path:url(#clip-path-3);}.cls-9{font-size:15.76px;font-family:SourceSansPro-Light, Source Sans Pro;}.cls-10{letter-spacing:-0.02em;}</style><clipPath id="clip-path"><rect class="cls-1" x="745.36" y="375.17" width="6.62" height="26.33" transform="translate(-56.98 637.81) rotate(-44.62)"/></clipPath><clipPath id="clip-path-2"><rect class="cls-1" x="733.81" y="368.76" width="28.67" height="6.62" transform="translate(-48.07 625.43) rotate(-44.09)"/></clipPath><clipPath id="clip-path-3"><rect class="cls-1" x="740.3" y="366.21" width="20.95" height="6.62" transform="translate(-45.56 626.55) rotate(-44.09)"/></clipPath></defs><title>Fichier 6</title><g id="Calque_2" data-name="Calque 2"><g id="Calque_1-2" data-name="Calque 1"><rect width="1366" height="768"/><g id="Divers"><g id="Logo_Ook" data-name="Logo Ook"><g id="O" class="cls-2"><text class="cls-3" transform="translate(671.3 399.23) rotate(-0.59)">O</text></g><g id="O-2" class="cls-2"><text class="cls-4" transform="translate(622.39 399.77) rotate(-0.59)">O</text></g><g id="_" data-name=" " class="cls-2"><text class="cls-5" transform="translate(765.53 369.57) rotate(-0.59)">™</text></g></g><g id="Groupe_38" data-name="Groupe 38"><g id="Rectangle_2" data-name="Rectangle 2"><rect id="fill" class="cls-1" x="745.36" y="375.17" width="6.62" height="26.33" transform="translate(-56.98 637.81) rotate(-44.62)"/><rect class="cls-1" x="745.36" y="375.17" width="6.62" height="26.33" transform="translate(-56.98 637.81) rotate(-44.62)"/><g class="cls-6"><path class="cls-1" d="M752.52,387.52l-4.71,4.65m4.61,11-18.5-18.74m10.9,4.75,4.71-4.65m-4.61-10.95,18.49,18.74"/></g></g><g id="Rectangle_1" data-name="Rectangle 1"><rect id="fill-2" class="cls-1" x="733.81" y="368.76" width="28.67" height="6.62" transform="translate(-48.07 625.43) rotate(-44.09)"/><rect class="cls-1" x="733.81" y="368.76" width="28.67" height="6.62" transform="translate(-48.07 625.43) rotate(-44.09)"/><g class="cls-7"><path class="cls-1" d="M748.22,367.39l4.6,4.75m11-4.51-20.59,20m4.85-10.85-4.6-4.75m-11,4.51,20.6-20"/></g></g><g id="Rectangle_4" data-name="Rectangle 4"><rect id="fill-3" class="cls-1" x="740.3" y="366.21" width="20.95" height="6.62" transform="translate(-45.56 626.55) rotate(-44.09)"/><rect class="cls-1" x="740.3" y="366.21" width="20.95" height="6.62" transform="translate(-45.56 626.55) rotate(-44.09)"/><g class="cls-8"><path class="cls-1" d="M748.87,366.76l4.6,4.75m10.2-3.73-15,14.58m4.06-10.08-4.6-4.75m-10.2,3.74,15-14.58"/></g></g><g id="Groupe_7" data-name="Groupe 7"><circle id="Ellipse_1" data-name="Ellipse 1" class="cls-1" cx="726.86" cy="364.89" r="5.52"/><circle id="Ellipse_2" data-name="Ellipse 2" class="cls-1" cx="727.02" cy="379.68" r="5.52"/><circle id="Ellipse_3" data-name="Ellipse 3" class="cls-1" cx="727.17" cy="394.24" r="5.52"/></g><g id="Groupe_39" data-name="Groupe 39"><circle id="Ellipse_1-2" data-name="Ellipse 1-2" class="cls-1" cx="726.86" cy="364.89" r="5.52"/><circle id="Ellipse_2-2" data-name="Ellipse 2-2" class="cls-1" cx="727.02" cy="379.68" r="5.52"/><circle id="Ellipse_3-2" data-name="Ellipse 3-2" class="cls-1" cx="727.17" cy="394.24" r="5.52"/></g></g></g><text class="cls-9" transform="translate(678.39 422.98)"><tspan class="cls-10">s</tspan><tspan x="6.07" y="0">tudio</tspan></text></g></g></svg>