<svg xmlns="http://www.w3.org/2000/svg" xmlns:xlink="http://www.w3.org/1999/xlink" viewBox="0 0 1366 768"><defs><style>.cls-1,.cls-8{fill:none;}.cls-2{fill:#fff;}.cls-3,.cls-4,.cls-5,.cls-6{isolation:isolate;}.cls-4,.cls-5{font-size:97.26px;}.cls-4{font-family:Fugue-Regular, Fugue;}.cls-5{font-family:FugueHead, Fugue;}.cls-6{font-size:31.12px;font-family:SourceSansPro-Regular, Source Sans Pro;}.cls-7{clip-path:url(#clip-path);}.cls-8{stroke:#000;stroke-width:10px;}.cls-9{clip-path:url(#clip-path-2);}.cls-10{clip-path:url(#clip-path-3);}</style><clipPath id="clip-path"><rect class="cls-1" x="777.27" y="370.06" width="11.67" height="46.41" transform="translate(-53.28 654.77) rotate(-44.03)"/></clipPath><clipPath id="clip-path-2"><rect class="cls-1" x="757.2" y="358.75" width="50.55" height="11.67" transform="translate(-36.08 638.74) rotate(-43.5)"/></clipPath><clipPath id="clip-path-3"><rect class="cls-1" x="768.69" y="354.32" width="36.94" height="11.67" transform="translate(-31.74 640.75) rotate(-43.5)"/></clipPath></defs><title>Fichier 4</title><g id="Calque_2" data-name="Calque 2"><g id="Calque_1-2" data-name="Calque 1"><rect class="cls-2" width="1366" height="768"/><g id="Divers"><g id="Logo_Ook" data-name="Logo Ook"><g id="O" class="cls-3"><text class="cls-4" transform="translate(646.52 411.08)">O</text></g><g id="O-2" class="cls-3"><text class="cls-5" transform="translate(560.29 411.12)">O</text></g><g id="_" data-name=" " class="cls-3"><text class="cls-6" transform="translate(813.17 360.5)">™</text></g></g><g id="Groupe_38" data-name="Groupe 38"><g id="Rectangle_2" data-name="Rectangle 2"><rect id="fill" x="777.27" y="370.06" width="11.67" height="46.41" transform="translate(-53.28 654.77) rotate(-44.03)"/><g class="cls-7"><path class="cls-8" d="M789.91,391.91l-8.4,8.12m7.93,19.39-32.26-33.37m19.12,8.58,8.39-8.11m-7.93-19.4L809,400.49"/></g></g><g id="Rectangle_1" data-name="Rectangle 1"><rect id="fill-2" x="757.2" y="358.75" width="50.55" height="11.67" transform="translate(-36.08 638.74) rotate(-43.5)"/><g class="cls-9"><path class="cls-8" d="M782.69,356.34l8,8.46m19.46-7.74-36.67,34.8m8.75-19-8-8.46m-19.46,7.74,36.67-34.79"/></g></g><g id="Rectangle_4" data-name="Rectangle 4"><rect id="fill-3" x="768.69" y="354.32" width="36.94" height="11.67" transform="translate(-31.74 640.75) rotate(-43.5)"/><g class="cls-10"><path class="cls-8" d="M783.85,355.25l8,8.46m18-6.4-26.79,25.43m7.34-17.69-8-8.46M764.39,363l26.8-25.43"/></g></g><g id="Groupe_7" data-name="Groupe 7"><circle id="Ellipse_1" data-name="Ellipse 1" cx="745.09" cy="351.55" r="9.73"/><circle id="Ellipse_2" data-name="Ellipse 2" cx="745.09" cy="377.62" r="9.73"/><circle id="Ellipse_3" data-name="Ellipse 3" cx="745.09" cy="403.29" r="9.73"/></g><g id="Groupe_39" data-name="Groupe 39"><circle id="Ellipse_1-2" data-name="Ellipse 1-2" cx="745.09" cy="351.55" r="9.73"/><circle id="Ellipse_2-2" data-name="Ellipse 2-2" cx="745.09" cy="377.62" r="9.73"/><circle id="Ellipse_3-2" data-name="Ellipse 3-2" cx="745.09" cy="403.29" r="9.73"/></g></g></g></g></g></svg>