<svg xmlns="http://www.w3.org/2000/svg" viewBox="0 0 352.15 104.47"><defs><style>.cls-1,.cls-3{fill:#fff;}.cls-2,.cls-3{isolation:isolate;}.cls-3{font-size:37px;font-family:SourceSansPro-Regular, Source Sans Pro;}</style></defs><title>ooklogoapplatblanc</title><g id="Calque_2" data-name="Calque 2"><g id="Calque_1-2" data-name="Calque 1"><polygon class="cls-1" points="312.29 4.5 323.58 16.4 283.91 54.05 321.62 93.06 309.81 104.47 260.7 53.45 312.29 4.5"/><circle class="cls-1" cx="240.03" cy="51.86" r="14.17"/><circle class="cls-1" cx="240.03" cy="15.86" r="14.17"/><circle class="cls-1" cx="240.03" cy="88.86" r="14.17"/><g id="O" class="cls-2"><g class="cls-2"><path class="cls-1" d="M108.81,53.16q0-24.39,13.1-38.18t33.81-13.8a46.9,46.9,0,0,1,24.45,6.48,42.39,42.39,0,0,1,16.61,18.07A58.85,58.85,0,0,1,202.49,52a57.84,57.84,0,0,1-6,26.66,41,41,0,0,1-17,17.8,48.6,48.6,0,0,1-23.79,6.05,46.35,46.35,0,0,1-24.72-6.68,43,43,0,0,1-16.51-18.24A55.33,55.33,0,0,1,108.81,53.16Zm13.36.2q0,17.72,9.52,27.9a31.34,31.34,0,0,0,23.89,10.19q14.64,0,24.09-10.29T189.13,52a50.09,50.09,0,0,0-4-20.88,31,31,0,0,0-11.82-13.83,32,32,0,0,0-17.48-4.91,33.14,33.14,0,0,0-23.68,9.45Q122.17,31.24,122.17,53.36Z"/></g></g><g id="O-2" data-name="O" class="cls-2"><g class="cls-2"><path class="cls-1" d="M0,53.16Q0,28.77,13.1,15T46.91,1.18A46.9,46.9,0,0,1,71.36,7.66,42.39,42.39,0,0,1,88,25.73,58.72,58.72,0,0,1,93.68,52a57.71,57.71,0,0,1-6,26.66,41,41,0,0,1-17,17.8,48.6,48.6,0,0,1-23.79,6.05,46.35,46.35,0,0,1-24.72-6.68A43,43,0,0,1,5.61,77.62,55.33,55.33,0,0,1,0,53.16Zm13.36.2q0,17.72,9.53,27.9A31.31,31.31,0,0,0,46.77,91.45q14.64,0,24.09-10.29T80.32,52a50.09,50.09,0,0,0-4-20.88A31,31,0,0,0,64.45,17.25,32,32,0,0,0,47,12.34a33.14,33.14,0,0,0-23.68,9.45Q13.36,31.24,13.36,53.36Z"/></g></g><g id="_" data-name=" " class="cls-2"><text class="cls-3" transform="translate(328.59 30.71)">™</text></g></g></g></svg>