<svg id="Calque_1" data-name="Calque 1" xmlns="http://www.w3.org/2000/svg" viewBox="0 0 841.89 595.28"><defs><style>.cls-1{fill:#060606;}.cls-2,.cls-4{fill:#fff;}.cls-3,.cls-4{isolation:isolate;}.cls-4{font-size:16.88px;font-family:SourceSansPro-Regular, Source Sans Pro;}</style></defs><title>ookpreloader</title><rect class="cls-1" x="-46.3" y="-36.22" width="938.22" height="662.71"/><polygon class="cls-2" points="495.25 266.07 500.41 271.5 482.31 288.67 499.51 306.47 494.13 311.67 471.72 288.4 495.25 266.07"/><circle class="cls-2" cx="462.3" cy="287.68" r="6.46"/><circle class="cls-2" cx="462.3" cy="271.25" r="6.46"/><circle class="cls-2" cx="462.3" cy="304.55" r="6.46"/><g id="O" class="cls-3"><g class="cls-3"><path class="cls-2" d="M402.44,288.27q0-11.13,6-17.42t15.42-6.29A21.39,21.39,0,0,1,435,267.51a19.39,19.39,0,0,1,7.58,8.25,26.84,26.84,0,0,1,2.6,12,26.29,26.29,0,0,1-2.74,12.16,18.67,18.67,0,0,1-7.77,8.12,22.22,22.22,0,0,1-10.85,2.76,21.05,21.05,0,0,1-11.28-3.05,19.61,19.61,0,0,1-7.53-8.32A25.28,25.28,0,0,1,402.44,288.27Zm6.1.09q0,8.08,4.34,12.73a15.16,15.16,0,0,0,21.88,0q4.32-4.69,4.32-13.32a22.84,22.84,0,0,0-1.85-9.52,14.15,14.15,0,0,0-5.39-6.31,14.59,14.59,0,0,0-8-2.24A15.15,15.15,0,0,0,413.06,274Q408.55,278.28,408.54,288.36Z"/></g></g><g id="O-2" data-name="O" class="cls-3"><g class="cls-3"><path class="cls-2" d="M348.72,289.47q0-11.13,6-17.42t15.42-6.29a21.42,21.42,0,0,1,11.16,2.95,19.31,19.31,0,0,1,7.57,8.25,26.71,26.71,0,0,1,2.61,12,26.33,26.33,0,0,1-2.75,12.16,18.72,18.72,0,0,1-7.77,8.12A22.19,22.19,0,0,1,370.08,312a21.19,21.19,0,0,1-11.28-3.05,19.52,19.52,0,0,1-7.52-8.32A25.14,25.14,0,0,1,348.72,289.47Zm6.09.09q0,8.07,4.35,12.72a15.15,15.15,0,0,0,21.88,0q4.31-4.69,4.31-13.32a22.92,22.92,0,0,0-1.84-9.53,14.22,14.22,0,0,0-5.4-6.31,14.65,14.65,0,0,0-8-2.24,15.11,15.11,0,0,0-10.8,4.32Q354.81,279.46,354.81,289.56Z"/></g></g><g id="_" data-name=" " class="cls-3"><text class="cls-4" transform="translate(502.69 278.03)">™</text></g><path class="cls-2" d="M403,350.77a8.6,8.6,0,0,1-3.84-.83,9.13,9.13,0,0,1-2.85-2.14l.9-1a8,8,0,0,0,2.58,2,7.32,7.32,0,0,0,3.21.72,5.47,5.47,0,0,0,3.6-1.1,3.53,3.53,0,0,0,1.32-2.86,3.91,3.91,0,0,0-.29-1.58,3.48,3.48,0,0,0-.76-1.11,4.66,4.66,0,0,0-1.13-.79c-.43-.22-.88-.44-1.36-.66l-3-1.35q-.63-.27-1.35-.66a5.68,5.68,0,0,1-1.31-1,5.11,5.11,0,0,1-1-1.38,4.26,4.26,0,0,1-.39-1.9,4.41,4.41,0,0,1,.43-2,4.69,4.69,0,0,1,1.2-1.53,5.56,5.56,0,0,1,1.83-1,7.15,7.15,0,0,1,2.3-.36,7,7,0,0,1,3.19.7,8.17,8.17,0,0,1,2.3,1.67l-.78.9a7,7,0,0,0-2-1.46,6.16,6.16,0,0,0-2.67-.55,4.94,4.94,0,0,0-3.18,1,3.13,3.13,0,0,0-1.2,2.58,3,3,0,0,0,.33,1.47,3.65,3.65,0,0,0,.84,1,6,6,0,0,0,1.11.75c.4.21.78.4,1.14.56l3,1.32a13.17,13.17,0,0,1,1.59.81,6.23,6.23,0,0,1,1.32,1.05,4.61,4.61,0,0,1,.91,1.42,5.1,5.1,0,0,1,.35,2,5,5,0,0,1-.45,2.11,4.89,4.89,0,0,1-1.28,1.68,6.08,6.08,0,0,1-2,1.11A7.94,7.94,0,0,1,403,350.77Z"/><path class="cls-2" d="M416.62,350.77a4.19,4.19,0,0,1-1.74-.32,2.77,2.77,0,0,1-1.11-.88,3.46,3.46,0,0,1-.59-1.38,8.89,8.89,0,0,1-.16-1.77v-9.27h-2.25v-1l2.28-.12.18-4.17h1.14V336h4.17v1.14h-4.17v9.39a6.7,6.7,0,0,0,.1,1.24,2.58,2.58,0,0,0,.38,1,1.8,1.8,0,0,0,.73.63,2.82,2.82,0,0,0,1.22.23,3.48,3.48,0,0,0,.91-.14,5.76,5.76,0,0,0,.89-.31l.36,1.08a10.13,10.13,0,0,1-1.26.39A4.78,4.78,0,0,1,416.62,350.77Z"/><path class="cls-2" d="M426.19,350.77a3.92,3.92,0,0,1-3.3-1.35,6.77,6.77,0,0,1-1.05-4.17V336h1.32v9.06a6,6,0,0,0,.76,3.4,2.85,2.85,0,0,0,2.51,1.1,4.11,4.11,0,0,0,2.34-.71,11.42,11.42,0,0,0,2.31-2.23V336h1.32v14.4h-1.11l-.15-2.4h-.06a9.82,9.82,0,0,1-2.22,2A4.84,4.84,0,0,1,426.19,350.77Z"/><path class="cls-2" d="M439.4,350.77a5.39,5.39,0,0,1-4.35-1.94,8.49,8.49,0,0,1-1.62-5.59,9.21,9.21,0,0,1,.51-3.15,7.27,7.27,0,0,1,1.4-2.4,6.12,6.12,0,0,1,2-1.52,5.81,5.81,0,0,1,2.44-.52,5.3,5.3,0,0,1,2.3.46,11.4,11.4,0,0,1,2.05,1.31l-.06-2.64v-5.94h1.32v21.57h-1.14l-.12-1.86h-.09a9.56,9.56,0,0,1-2.05,1.54A5.23,5.23,0,0,1,439.4,350.77Zm.18-1.17a4.64,4.64,0,0,0,2.3-.62,10.44,10.44,0,0,0,2.23-1.75v-8.55a7.87,7.87,0,0,0-2.14-1.44,5.31,5.31,0,0,0-2.06-.42,4.21,4.21,0,0,0-2,.49,5,5,0,0,0-1.6,1.35,6.58,6.58,0,0,0-1.07,2,8.09,8.09,0,0,0-.39,2.54,10,10,0,0,0,.32,2.61,6,6,0,0,0,.91,2,4.21,4.21,0,0,0,3.51,1.76Z"/><path class="cls-2" d="M449.58,332.05a1.2,1.2,0,0,1-.86-.33,1.11,1.11,0,0,1-.34-.84,1.15,1.15,0,0,1,.34-.89,1.23,1.23,0,0,1,.86-.31,1.2,1.2,0,0,1,.85.31,1.15,1.15,0,0,1,.35.89,1.12,1.12,0,0,1-.35.84A1.18,1.18,0,0,1,449.58,332.05Zm-.69,17.88v-14.4h1.32v14.4Z"/><path class="cls-2" d="M459.89,350.29a6.07,6.07,0,0,1-4.51-2A7.16,7.16,0,0,1,454,346a9,9,0,0,1-.53-3.19,9.31,9.31,0,0,1,.53-3.23,7.06,7.06,0,0,1,1.41-2.38,6.07,6.07,0,0,1,4.51-2,6.22,6.22,0,0,1,2.48.51,6,6,0,0,1,2.07,1.47,7.06,7.06,0,0,1,1.41,2.38,9.31,9.31,0,0,1,.52,3.23,9,9,0,0,1-.52,3.19,7.16,7.16,0,0,1-1.41,2.36,6,6,0,0,1-2.07,1.47A6.22,6.22,0,0,1,459.89,350.29Zm0-1.17a4.55,4.55,0,0,0,2-.47,4.73,4.73,0,0,0,1.62-1.3,6.4,6.4,0,0,0,1.06-2,8.12,8.12,0,0,0,.39-2.58,8.22,8.22,0,0,0-.39-2.61,6.62,6.62,0,0,0-1.06-2,4.68,4.68,0,0,0-1.62-1.32,4.54,4.54,0,0,0-2-.46,4.43,4.43,0,0,0-2,.46,4.7,4.7,0,0,0-1.6,1.32,6.64,6.64,0,0,0-1.07,2,8.22,8.22,0,0,0-.39,2.61,8.12,8.12,0,0,0,.39,2.58,6.42,6.42,0,0,0,1.07,2,4.76,4.76,0,0,0,1.6,1.3A4.44,4.44,0,0,0,459.89,349.12Z"/></svg>