<svg xmlns="http://www.w3.org/2000/svg" viewBox="0 0 519.99 603.132">
  <defs>
    <style>
      .cls-1 {
        fill: rgba(0,0,0,0.4);
      }

      .cls-2 {
        fill: rgba(0,0,0,0.6);
      }

      .cls-3 {
        fill: rgba(0,0,0,0.2);
      }
    </style>
  </defs>
  <g id="Groupe_1" data-name="Groupe 1" transform="translate(1126.49 986.732) rotate(180)">
    <path id="Tracé_7" data-name="Tracé 7" class="cls-1" d="M813.966,227.1l57.069,54.871L631.78,518.079l250.4,254.769c-18.3,19.233-36.351,38.151-54.615,57.385l-307.62-313Z" transform="translate(244.314 156.5)"/>
    <path id="Tracé_8" data-name="Tracé 8" class="cls-1" d="M505.574,358.93a39.574,39.574,0,1,1-28.033,11.64A39.576,39.576,0,0,1,505.574,358.93Z" transform="translate(140.5 285.532)"/>
    <path id="Tracé_9" data-name="Tracé 9" class="cls-2" d="M545.151,278.665a39.576,39.576,0,1,1-39.338-39.754A39.575,39.575,0,0,1,545.151,278.665Z" transform="translate(140.5 168.059)"/>
    <path id="Tracé_10" data-name="Tracé 10" class="cls-3" d="M505.574,479A39.575,39.575,0,1,1,466,518.456,39.575,39.575,0,0,1,505.574,479Z" transform="translate(140.5 403.055)"/>
    <path id="Tracé_34" data-name="Tracé 34" class="cls-2" d="M545.151,278.665a39.576,39.576,0,1,1-39.338-39.754A39.575,39.575,0,0,1,545.151,278.665Z" transform="translate(140.5 168.059)"/>
  </g>
</svg>
